<svg xmlns="http://www.w3.org/2000/svg" viewBox="0 0 512 512">
  <rect width="512" height="512" rx="80" fill="#12121e"/>
  <rect x="20" y="20" width="472" height="472" rx="60" fill="#1c1c2e" stroke="#2e2e4a" stroke-width="4"/>
  <g transform="translate(256,230)" fill="#5b8aff">
    <circle r="58" fill="#12121e" stroke="#5b8aff" stroke-width="20"/>
    <circle r="26" fill="#5b8aff"/>
    <rect x="-20" y="-120" width="40" height="52" rx="10"/>
    <rect x="-20" y="68"   width="40" height="52" rx="10"/>
    <rect x="-120" y="-20" width="52" height="40" rx="10"/>
    <rect x="68"   y="-20" width="52" height="40" rx="10"/>
    <rect x="-100" y="-100" width="42" height="42" rx="8" transform="rotate(45)"/>
    <rect x="-100" y="-100" width="42" height="42" rx="8" transform="rotate(-45)"/>
    <rect x="-100" y="-100" width="42" height="42" rx="8" transform="rotate(135)"/>
    <rect x="-100" y="-100" width="42" height="42" rx="8" transform="rotate(-135)"/>
  </g>
  <text x="256" y="410" font-family="monospace" font-size="36" font-weight="bold" fill="#5b8aff" text-anchor="middle">MetalSketch</text>
  <line x1="50"  y1="450" x2="462" y2="450" stroke="#00d4d4" stroke-width="4"/>
  <line x1="50"  y1="430" x2="50"  y2="470" stroke="#00d4d4" stroke-width="4"/>
  <line x1="462" y1="430" x2="462" y2="470" stroke="#00d4d4" stroke-width="4"/>
  <text x="256" y="495" font-family="monospace" font-size="24" fill="#00d4d4" text-anchor="middle">Tracé &amp; Développés</text>
</svg>
